<mxfile host="app.diagrams.net" modified="2021-07-01T07:24:57.450Z" agent="5.0 (Windows NT 10.0; Win64; x64) AppleWebKit/537.36 (KHTML, like Gecko) Chrome/90.0.4430.212 Safari/537.36 OPR/76.0.4017.208 (Edition Yx GX)" etag="-EARcqU-9cEK6oQmEUft" version="14.8.3" type="github">
  <diagram id="jxAJT3Dp_lEYtX4IT00w" name="Page-1">
    <mxGraphModel dx="997" dy="580" grid="1" gridSize="10" guides="1" tooltips="1" connect="1" arrows="1" fold="1" page="1" pageScale="1" pageWidth="827" pageHeight="1169" math="0" shadow="0">
      <root>
        <mxCell id="0" />
        <mxCell id="1" parent="0" />
        <mxCell id="q-B6tYfIVw1v354TyaNC-1" value="начало" style="rounded=1;whiteSpace=wrap;html=1;" vertex="1" parent="1">
          <mxGeometry x="160" y="10" width="80" height="40" as="geometry" />
        </mxCell>
        <mxCell id="q-B6tYfIVw1v354TyaNC-2" value="ввод x1,&lt;br&gt;y1, x2, y2" style="shape=parallelogram;perimeter=parallelogramPerimeter;whiteSpace=wrap;html=1;fixedSize=1;" vertex="1" parent="1">
          <mxGeometry x="160" y="70" width="80" height="40" as="geometry" />
        </mxCell>
        <mxCell id="q-B6tYfIVw1v354TyaNC-3" value="" style="endArrow=none;html=1;" edge="1" parent="1">
          <mxGeometry width="50" height="50" relative="1" as="geometry">
            <mxPoint x="199.82999999999998" y="70" as="sourcePoint" />
            <mxPoint x="199.82999999999998" y="50" as="targetPoint" />
            <Array as="points">
              <mxPoint x="199.82999999999998" y="60" />
            </Array>
          </mxGeometry>
        </mxCell>
        <mxCell id="q-B6tYfIVw1v354TyaNC-4" value="" style="endArrow=none;html=1;" edge="1" parent="1">
          <mxGeometry width="50" height="50" relative="1" as="geometry">
            <mxPoint x="199.82999999999993" y="130" as="sourcePoint" />
            <mxPoint x="199.82999999999993" y="110" as="targetPoint" />
            <Array as="points">
              <mxPoint x="199.82999999999998" y="120" />
            </Array>
          </mxGeometry>
        </mxCell>
        <mxCell id="q-B6tYfIVw1v354TyaNC-5" value="abs(dx) = 2" style="rhombus;whiteSpace=wrap;html=1;" vertex="1" parent="1">
          <mxGeometry x="160" y="190" width="80" height="40" as="geometry" />
        </mxCell>
        <mxCell id="q-B6tYfIVw1v354TyaNC-9" value="" style="endArrow=none;html=1;" edge="1" parent="1">
          <mxGeometry width="50" height="50" relative="1" as="geometry">
            <mxPoint x="199.52" y="250" as="sourcePoint" />
            <mxPoint x="199.52" y="230" as="targetPoint" />
          </mxGeometry>
        </mxCell>
        <mxCell id="q-B6tYfIVw1v354TyaNC-19" value="конец" style="rounded=1;whiteSpace=wrap;html=1;" vertex="1" parent="1">
          <mxGeometry x="280" y="430" width="80" height="40" as="geometry" />
        </mxCell>
        <mxCell id="q-B6tYfIVw1v354TyaNC-22" value="" style="endArrow=none;html=1;" edge="1" parent="1">
          <mxGeometry width="50" height="50" relative="1" as="geometry">
            <mxPoint x="199.6" y="310" as="sourcePoint" />
            <mxPoint x="199.6" y="290" as="targetPoint" />
          </mxGeometry>
        </mxCell>
        <mxCell id="q-B6tYfIVw1v354TyaNC-28" value="dx = x1-x2&lt;br&gt;dy = y1-y2" style="rounded=0;whiteSpace=wrap;html=1;" vertex="1" parent="1">
          <mxGeometry x="160" y="130" width="80" height="40" as="geometry" />
        </mxCell>
        <mxCell id="q-B6tYfIVw1v354TyaNC-29" value="" style="endArrow=none;html=1;" edge="1" parent="1">
          <mxGeometry width="50" height="50" relative="1" as="geometry">
            <mxPoint x="199.71000000000004" y="190" as="sourcePoint" />
            <mxPoint x="199.71000000000004" y="170" as="targetPoint" />
          </mxGeometry>
        </mxCell>
        <mxCell id="q-B6tYfIVw1v354TyaNC-31" value="fx = 1" style="rounded=0;whiteSpace=wrap;html=1;" vertex="1" parent="1">
          <mxGeometry x="160" y="250" width="80" height="40" as="geometry" />
        </mxCell>
        <mxCell id="q-B6tYfIVw1v354TyaNC-32" value="abs(dy) = 2" style="rhombus;whiteSpace=wrap;html=1;" vertex="1" parent="1">
          <mxGeometry x="160" y="310" width="80" height="40" as="geometry" />
        </mxCell>
        <mxCell id="q-B6tYfIVw1v354TyaNC-33" value="" style="endArrow=none;html=1;" edge="1" parent="1">
          <mxGeometry width="50" height="50" relative="1" as="geometry">
            <mxPoint x="199.51999999999998" y="370" as="sourcePoint" />
            <mxPoint x="199.51999999999998" y="350.00000000000006" as="targetPoint" />
          </mxGeometry>
        </mxCell>
        <mxCell id="q-B6tYfIVw1v354TyaNC-34" value="" style="endArrow=none;html=1;" edge="1" parent="1">
          <mxGeometry width="50" height="50" relative="1" as="geometry">
            <mxPoint x="199.60000000000002" y="430" as="sourcePoint" />
            <mxPoint x="199.60000000000002" y="410" as="targetPoint" />
          </mxGeometry>
        </mxCell>
        <mxCell id="q-B6tYfIVw1v354TyaNC-35" value="fy = 1" style="rounded=0;whiteSpace=wrap;html=1;" vertex="1" parent="1">
          <mxGeometry x="160" y="370" width="80" height="40" as="geometry" />
        </mxCell>
        <mxCell id="q-B6tYfIVw1v354TyaNC-36" value="A" style="ellipse;whiteSpace=wrap;html=1;aspect=fixed;" vertex="1" parent="1">
          <mxGeometry x="180" y="430" width="40" height="40" as="geometry" />
        </mxCell>
        <mxCell id="q-B6tYfIVw1v354TyaNC-37" value="A" style="ellipse;whiteSpace=wrap;html=1;aspect=fixed;" vertex="1" parent="1">
          <mxGeometry x="300" y="10" width="40" height="40" as="geometry" />
        </mxCell>
        <mxCell id="q-B6tYfIVw1v354TyaNC-38" value="abs(dx) = 1" style="rhombus;whiteSpace=wrap;html=1;" vertex="1" parent="1">
          <mxGeometry x="280" y="70" width="80" height="40" as="geometry" />
        </mxCell>
        <mxCell id="q-B6tYfIVw1v354TyaNC-39" value="" style="endArrow=none;html=1;" edge="1" parent="1">
          <mxGeometry width="50" height="50" relative="1" as="geometry">
            <mxPoint x="319.52" y="130" as="sourcePoint" />
            <mxPoint x="319.52" y="110" as="targetPoint" />
          </mxGeometry>
        </mxCell>
        <mxCell id="q-B6tYfIVw1v354TyaNC-40" value="" style="endArrow=none;html=1;" edge="1" parent="1">
          <mxGeometry width="50" height="50" relative="1" as="geometry">
            <mxPoint x="319.6" y="190" as="sourcePoint" />
            <mxPoint x="319.6" y="170" as="targetPoint" />
          </mxGeometry>
        </mxCell>
        <mxCell id="q-B6tYfIVw1v354TyaNC-41" value="tx = 1" style="rounded=0;whiteSpace=wrap;html=1;" vertex="1" parent="1">
          <mxGeometry x="280" y="130" width="80" height="40" as="geometry" />
        </mxCell>
        <mxCell id="q-B6tYfIVw1v354TyaNC-42" value="abs(dy) = 1" style="rhombus;whiteSpace=wrap;html=1;" vertex="1" parent="1">
          <mxGeometry x="280" y="190" width="80" height="40" as="geometry" />
        </mxCell>
        <mxCell id="q-B6tYfIVw1v354TyaNC-43" value="" style="endArrow=none;html=1;" edge="1" parent="1">
          <mxGeometry width="50" height="50" relative="1" as="geometry">
            <mxPoint x="319.52" y="250" as="sourcePoint" />
            <mxPoint x="319.52" y="230" as="targetPoint" />
          </mxGeometry>
        </mxCell>
        <mxCell id="q-B6tYfIVw1v354TyaNC-44" value="ty = 1" style="rounded=0;whiteSpace=wrap;html=1;" vertex="1" parent="1">
          <mxGeometry x="280" y="250" width="80" height="40" as="geometry" />
        </mxCell>
        <mxCell id="q-B6tYfIVw1v354TyaNC-45" value="" style="endArrow=none;html=1;" edge="1" parent="1">
          <mxGeometry width="50" height="50" relative="1" as="geometry">
            <mxPoint x="319.66" y="70" as="sourcePoint" />
            <mxPoint x="319.66" y="50" as="targetPoint" />
            <Array as="points">
              <mxPoint x="319.65999999999997" y="60" />
            </Array>
          </mxGeometry>
        </mxCell>
        <mxCell id="q-B6tYfIVw1v354TyaNC-46" value="" style="endArrow=none;html=1;" edge="1" parent="1">
          <mxGeometry width="50" height="50" relative="1" as="geometry">
            <mxPoint x="319.65999999999997" y="310" as="sourcePoint" />
            <mxPoint x="319.65999999999997" y="290" as="targetPoint" />
          </mxGeometry>
        </mxCell>
        <mxCell id="q-B6tYfIVw1v354TyaNC-47" value="&lt;font style=&quot;font-size: 8px&quot;&gt;((fx &amp;amp;&amp;amp; ty) ||&lt;br&gt;(fy &amp;amp;&amp;amp; tx))&lt;/font&gt;" style="rhombus;whiteSpace=wrap;html=1;" vertex="1" parent="1">
          <mxGeometry x="280" y="310" width="80" height="40" as="geometry" />
        </mxCell>
        <mxCell id="q-B6tYfIVw1v354TyaNC-48" value="" style="endArrow=none;html=1;" edge="1" parent="1">
          <mxGeometry width="50" height="50" relative="1" as="geometry">
            <mxPoint x="319.66" y="370" as="sourcePoint" />
            <mxPoint x="319.66" y="350" as="targetPoint" />
          </mxGeometry>
        </mxCell>
        <mxCell id="q-B6tYfIVw1v354TyaNC-49" value="" style="endArrow=none;html=1;" edge="1" parent="1">
          <mxGeometry width="50" height="50" relative="1" as="geometry">
            <mxPoint x="360" y="330" as="sourcePoint" />
            <mxPoint x="400" y="330" as="targetPoint" />
          </mxGeometry>
        </mxCell>
        <mxCell id="q-B6tYfIVw1v354TyaNC-50" value="да" style="text;html=1;align=center;verticalAlign=middle;resizable=0;points=[];autosize=1;strokeColor=none;" vertex="1" parent="1">
          <mxGeometry x="320" y="340" width="30" height="20" as="geometry" />
        </mxCell>
        <mxCell id="q-B6tYfIVw1v354TyaNC-51" value="нет" style="text;html=1;align=center;verticalAlign=middle;resizable=0;points=[];autosize=1;strokeColor=none;" vertex="1" parent="1">
          <mxGeometry x="355" y="310" width="30" height="20" as="geometry" />
        </mxCell>
        <mxCell id="q-B6tYfIVw1v354TyaNC-52" value="вывод&lt;br&gt;&amp;nbsp;&quot;YES&quot;" style="shape=parallelogram;perimeter=parallelogramPerimeter;whiteSpace=wrap;html=1;fixedSize=1;" vertex="1" parent="1">
          <mxGeometry x="280" y="370" width="80" height="40" as="geometry" />
        </mxCell>
        <mxCell id="q-B6tYfIVw1v354TyaNC-53" value="вывод&lt;br&gt;&amp;nbsp;&quot;NO&quot;" style="shape=parallelogram;perimeter=parallelogramPerimeter;whiteSpace=wrap;html=1;fixedSize=1;" vertex="1" parent="1">
          <mxGeometry x="390" y="310" width="80" height="40" as="geometry" />
        </mxCell>
        <mxCell id="q-B6tYfIVw1v354TyaNC-54" value="" style="endArrow=none;html=1;" edge="1" parent="1">
          <mxGeometry width="50" height="50" relative="1" as="geometry">
            <mxPoint x="430" y="450" as="sourcePoint" />
            <mxPoint x="430" y="350" as="targetPoint" />
          </mxGeometry>
        </mxCell>
        <mxCell id="q-B6tYfIVw1v354TyaNC-55" value="" style="endArrow=classic;html=1;" edge="1" parent="1">
          <mxGeometry width="50" height="50" relative="1" as="geometry">
            <mxPoint x="430" y="449.76" as="sourcePoint" />
            <mxPoint x="360" y="449.76" as="targetPoint" />
          </mxGeometry>
        </mxCell>
        <mxCell id="q-B6tYfIVw1v354TyaNC-56" value="" style="endArrow=none;html=1;" edge="1" parent="1">
          <mxGeometry width="50" height="50" relative="1" as="geometry">
            <mxPoint x="319.52" y="430" as="sourcePoint" />
            <mxPoint x="319.52" y="410" as="targetPoint" />
          </mxGeometry>
        </mxCell>
      </root>
    </mxGraphModel>
  </diagram>
</mxfile>
